<svg width="29" height="26" viewBox="0 0 29 26" fill="none" xmlns="http://www.w3.org/2000/svg">
<path fill-rule="evenodd" clip-rule="evenodd" d="M5.34391 6.93754C5.34391 3.51453 8.11881 0.739624 11.5418 0.739624C14.9648 0.739624 17.7397 3.51453 17.7397 6.93754C17.7397 10.3606 14.9648 13.1355 11.5418 13.1355C8.11881 13.1355 5.34391 10.3606 5.34391 6.93754ZM11.5418 2.92712C9.32694 2.92712 7.53141 4.72265 7.53141 6.93754C7.53141 9.15243 9.32694 10.948 11.5418 10.948C13.7567 10.948 15.5522 9.15243 15.5522 6.93754C15.5522 4.72265 13.7567 2.92712 11.5418 2.92712Z" fill="#0DB665"/>
<path fill-rule="evenodd" clip-rule="evenodd" d="M0.239746 20.7917C0.239746 17.7714 2.68819 15.323 5.7085 15.323H6.2056C6.47465 15.323 6.74201 15.3655 6.99777 15.449L8.25998 15.8612C10.3925 16.5575 12.6912 16.5575 14.8237 15.8612L16.0859 15.449C16.3417 15.3655 16.609 15.323 16.8781 15.323H17.3752C20.3955 15.323 22.8439 17.7714 22.8439 20.7917V22.5246C22.8439 23.6231 22.0478 24.5597 20.9637 24.7367C14.7238 25.7554 8.35989 25.7554 2.11993 24.7367C1.03583 24.5597 0.239746 23.6231 0.239746 22.5246V20.7917ZM5.7085 17.5105C3.89631 17.5105 2.42725 18.9795 2.42725 20.7917V22.5246C2.42725 22.551 2.44637 22.5735 2.47241 22.5778C8.47893 23.5584 14.6047 23.5584 20.6112 22.5778C20.6373 22.5735 20.6564 22.551 20.6564 22.5246V20.7917C20.6564 18.9795 19.1873 17.5105 17.3752 17.5105H16.8781C16.8396 17.5105 16.8014 17.5165 16.7649 17.5285L15.5027 17.9406C12.929 18.781 10.1547 18.781 7.58097 17.9406L6.31876 17.5285C6.28223 17.5165 6.24403 17.5105 6.2056 17.5105H5.7085Z" fill="#0DB665"/>
<path d="M23.9377 5.11462C24.5417 5.11462 25.0314 5.60431 25.0314 6.20837V8.76046H27.5835C28.1876 8.76046 28.6772 9.25015 28.6772 9.85421C28.6772 10.4583 28.1876 10.948 27.5835 10.948H25.0314V13.5C25.0314 14.1041 24.5417 14.5938 23.9377 14.5938C23.3336 14.5938 22.8439 14.1041 22.8439 13.5V10.948H20.2918C19.6878 10.948 19.1981 10.4583 19.1981 9.85421C19.1981 9.25015 19.6878 8.76046 20.2918 8.76046H22.8439V6.20837C22.8439 5.60431 23.3336 5.11462 23.9377 5.11462Z" fill="#0DB665"/>
</svg>
